<svg version="1" xmlns="http://www.w3.org/2000/svg" width="688" height="688" viewBox="0 0 516.000000 516.000000"><path d="M301.5 20c-11.2 2.5-23.6 13.5-26 23.2-.7 2.8-1.4 3.1-10 4.3-26.3 3.8-55.3 14.4-78.3 28.7-26.8 16.7-53.3 43.3-68.7 68.9-3.9 6.6-3.9 6.6-8.7 6.8-9.7.3-21.1 6.4-26.8 14.2-7.1 9.9-17.3 44.7-19.7 67.9-1 9.4-1 43.2-.1 52.5.8 7.2 3.5 23.7 4.4 26.7.3 1 .7 2.9 1 4.3 3.3 18.2 18.5 31.5 36 31.5h5.2l4.8 8.2c9 15.7 19.2 29.7 29.3 40.3 6.7 6.9 18 17.5 22.1 20.5 1.8 1.4 3.9 3 4.6 3.7.6.7 6.1 4.4 12.1 8.3 24.6 16.1 54.1 27.5 81.8 31.6 8.1 1.2 8.7 1.3 9 1.6.1.2 1.4 2.8 2.8 6 3.1 7 9.9 13.8 17.4 17.4 5.1 2.5 7 2.8 15.3 2.9 8.9 0 20.4-.9 26-2 1.3-.2 4.2-.7 6.5-1.1 9.8-1.4 32.2-8 44-12.9 16.6-6.9 37-18.3 43-24 11.3-10.7 14.3-27.7 7.5-42-5.8-12.2-17.5-19.7-30.9-19.9-10.8-.1-14.1.9-26.6 8.5-14.8 8.9-37 17.4-51 19.4-2.3.3-5.1.7-6.4 1-1.2.2-6.2.7-10.9 1-4.8.4-10.7 1.4-13.2 2.2-8.8 3-17.1 10.5-20.7 18.5-1.1 2.5-2.4 3.8-3.6 3.8-3.5 0-25.2-4.9-32.7-7.3-29.7-9.8-53.8-24.4-75-45.7-15.6-15.5-24.4-27.1-33.5-43.7l-2.8-5.3 2.8-2.7c4.1-4.1 8.4-13.9 9.1-20.9.4-4.1.1-8.4-1.1-13.5-4-17.6-4.7-22.6-5-37.9-.4-21.7 1.7-35.3 9-58 4.3-13.2 4.7-15.1 4.2-21.6-.6-8.7-4.2-16.8-9.8-22.4l-3.9-3.8 5.8-8.9c29.4-44.6 78.9-75.8 131.4-82.8l4.3-.6 1.9 4.6c3.3 8.1 14.2 17 23.1 18.9 1.7.3 5.1.8 7.8 1.1 2.6.3 6.8.7 9.5 1 19.8 2.1 44 10.3 61.8 21.1 11.1 6.7 14.8 7.9 24.4 7.9 10.1-.1 17.1-2.8 24.2-9.4 14.8-13.6 15.3-37.4 1.2-51.6-9.2-9.2-38.7-23.7-63.7-31.4-22.3-6.9-54-11.4-64.2-9.1z"/><path d="M285.8 181.6c-.2.1-2.3.5-4.8.9-7.1.9-16.9 4.3-23.8 8.1-37.6 21-49.2 69.2-25.2 104.9 16.6 24.6 46 36.5 75.3 30.4 44.5-9.1 69.7-56.4 52.7-98.9-5.1-12.9-16.1-26.2-27.5-33.5-6.4-4.1-18.1-9-25.1-10.5-4.4-.9-21-2-21.6-1.4zm16.9 16.9c6 .9 16.6 5.5 22.8 10 26.3 18.7 31.7 55.6 12 80.7-21.6 27.5-60.4 29.9-85.1 5.4-24.8-24.7-21.8-65 6.3-85.8 12.6-9.3 27.6-12.8 44-10.3z"/><path d="M285.2 234.3c-22.2 8.3-16.6 41.6 7.1 41.7 18.5.1 28.3-21.6 16.2-35.8-4.9-5.7-16.1-8.6-23.3-5.9z"/></svg>